<svg width="19" height="19" viewBox="0 0 19 19" fill="none" xmlns="http://www.w3.org/2000/svg">
<path d="M3.10059 15.207C3.10059 15.9834 3.73047 16.6133 4.50684 16.6133H14.8193C15.5957 16.6133 16.2256 15.9834 16.2256 15.207V7.23828H3.10059V15.207ZM4.97559 9.58203C4.97559 9.32422 5.18652 9.11328 5.44434 9.11328H8.25683C8.51465 9.11328 8.72558 9.32422 8.72558 9.58203V12.3945C8.72558 12.6523 8.51465 12.8633 8.25683 12.8633H5.44434C5.18652 12.8633 4.97559 12.6523 4.97559 12.3945V9.58203ZM14.8193 3.48828H13.4131V2.08203C13.4131 1.82422 13.2021 1.61328 12.9443 1.61328H12.0068C11.749 1.61328 11.5381 1.82422 11.5381 2.08203V3.48828H7.78808V2.08203C7.78808 1.82422 7.57715 1.61328 7.31933 1.61328H6.38184C6.12402 1.61328 5.91309 1.82422 5.91309 2.08203V3.48828H4.50684C3.73047 3.48828 3.10059 4.11816 3.10059 4.89453V6.30078H16.2256V4.89453C16.2256 4.11816 15.5957 3.48828 14.8193 3.48828Z" fill="#333333"/>
</svg>
