<svg width="19" height="19" viewBox="0 0 19 19" fill="none" xmlns="http://www.w3.org/2000/svg">
<path d="M15.874 7.14453H3.45215C3.258 7.14453 3.10059 6.98712 3.10059 6.79297V5.73828C3.10059 4.96162 3.73018 4.33203 4.50684 4.33203H5.91309V2.80859C5.91309 2.61444 6.0705 2.45703 6.26465 2.45703H7.43652C7.63067 2.45703 7.78808 2.61444 7.78808 2.80859V4.33203H11.5381V2.80859C11.5381 2.61444 11.6955 2.45703 11.8896 2.45703H13.0615C13.2557 2.45703 13.4131 2.61444 13.4131 2.80859V4.33203H14.8193C15.596 4.33203 16.2256 4.96162 16.2256 5.73828V6.79297C16.2256 6.98712 16.0682 7.14453 15.874 7.14453ZM3.45215 8.08203H15.874C16.0682 8.08203 16.2256 8.23944 16.2256 8.43359V16.0508C16.2256 16.8274 15.596 17.457 14.8193 17.457H4.50684C3.73018 17.457 3.10059 16.8274 3.10059 16.0508V8.43359C3.10059 8.23944 3.258 8.08203 3.45215 8.08203ZM13.2167 10.893L12.3914 10.061C12.2547 9.92317 12.0321 9.92226 11.8942 10.059L8.78769 13.1406L7.44062 11.7826C7.3039 11.6448 7.08127 11.6439 6.94343 11.7806L6.11148 12.6059C5.97364 12.7426 5.97273 12.9652 6.10949 13.1031L8.52944 15.5426C8.66617 15.6804 8.88877 15.6813 9.02661 15.5446L13.2147 11.3901C13.3525 11.2534 13.3534 11.0308 13.2167 10.893Z" fill="#333333"/>
</svg>
