<svg width="21" height="21" viewBox="0 0 21 21" fill="none" xmlns="http://www.w3.org/2000/svg">
<path d="M3.89209 3.3418C3.58306 3.3418 3.28096 3.43344 3.02401 3.60513C2.76706 3.77682 2.56679 4.02084 2.44853 4.30635C2.33027 4.59186 2.29932 4.90603 2.35961 5.20913C2.4199 5.51222 2.56872 5.79063 2.78724 6.00915C3.00576 6.22767 3.28417 6.37649 3.58726 6.43678C3.89036 6.49706 4.20452 6.46612 4.49003 6.34786C4.77554 6.2296 5.01957 6.02933 5.19126 5.77238C5.36295 5.51542 5.45459 5.21333 5.45459 4.9043C5.45459 4.4899 5.28997 4.09247 4.99695 3.79944C4.70392 3.50642 4.30649 3.3418 3.89209 3.3418ZM3.89209 8.55013C3.58306 8.55013 3.28096 8.64177 3.02401 8.81346C2.76706 8.98515 2.56679 9.22918 2.44853 9.51469C2.33027 9.8002 2.29932 10.1144 2.35961 10.4175C2.4199 10.7206 2.56872 10.999 2.78724 11.2175C3.00576 11.436 3.28417 11.5848 3.58726 11.6451C3.89036 11.7054 4.20452 11.6745 4.49003 11.5562C4.77554 11.4379 5.01957 11.2377 5.19126 10.9807C5.36295 10.7238 5.45459 10.4217 5.45459 10.1126C5.45459 9.69823 5.28997 9.3008 4.99695 9.00778C4.70392 8.71475 4.30649 8.55013 3.89209 8.55013ZM3.89209 13.7585C3.58306 13.7585 3.28096 13.8501 3.02401 14.0218C2.76706 14.1935 2.56679 14.4375 2.44853 14.723C2.33027 15.0085 2.29932 15.3227 2.35961 15.6258C2.4199 15.9289 2.56872 16.2073 2.78724 16.4258C3.00576 16.6443 3.28417 16.7932 3.58726 16.8534C3.89036 16.9137 4.20452 16.8828 4.49003 16.7645C4.77554 16.6463 5.01957 16.446 5.19126 16.189C5.36295 15.9321 5.45459 15.63 5.45459 15.321C5.45459 14.9066 5.28997 14.5091 4.99695 14.2161C4.70392 13.9231 4.30649 13.7585 3.89209 13.7585ZM18.4754 14.2793H8.05876C7.92062 14.2793 7.78815 14.3342 7.69047 14.4318C7.5928 14.5295 7.53792 14.662 7.53792 14.8001V15.8418C7.53792 15.9799 7.5928 16.1124 7.69047 16.2101C7.78815 16.3078 7.92062 16.3626 8.05876 16.3626H18.4754C18.6136 16.3626 18.746 16.3078 18.8437 16.2101C18.9414 16.1124 18.9963 15.9799 18.9963 15.8418V14.8001C18.9963 14.662 18.9414 14.5295 18.8437 14.4318C18.746 14.3342 18.6136 14.2793 18.4754 14.2793ZM18.4754 3.86263H8.05876C7.92062 3.86263 7.78815 3.9175 7.69047 4.01518C7.5928 4.11285 7.53792 4.24533 7.53792 4.38346V5.42513C7.53792 5.56326 7.5928 5.69574 7.69047 5.79342C7.78815 5.89109 7.92062 5.94596 8.05876 5.94596H18.4754C18.6136 5.94596 18.746 5.89109 18.8437 5.79342C18.9414 5.69574 18.9963 5.56326 18.9963 5.42513V4.38346C18.9963 4.24533 18.9414 4.11285 18.8437 4.01518C18.746 3.9175 18.6136 3.86263 18.4754 3.86263ZM18.4754 9.07097H8.05876C7.92062 9.07097 7.78815 9.12584 7.69047 9.22351C7.5928 9.32119 7.53792 9.45367 7.53792 9.5918V10.6335C7.53792 10.7716 7.5928 10.9041 7.69047 11.0018C7.78815 11.0994 7.92062 11.1543 8.05876 11.1543H18.4754C18.6136 11.1543 18.746 11.0994 18.8437 11.0018C18.9414 10.9041 18.9963 10.7716 18.9963 10.6335V9.5918C18.9963 9.45367 18.9414 9.32119 18.8437 9.22351C18.746 9.12584 18.6136 9.07097 18.4754 9.07097Z" fill="#333333"/>
</svg>
